<?xml version="1.0" encoding="utf-8"?>
<!-- Generator: Adobe Illustrator 27.1.0, SVG Export Plug-In . SVG Version: 6.00 Build 0)  -->
<svg version="1.1" id="Layer_1" xmlns="http://www.w3.org/2000/svg" xmlns:xlink="http://www.w3.org/1999/xlink" x="0px" y="0px"
	 viewBox="0 0 451 676" style="enable-background:new 0 0 451 676;" xml:space="preserve">
<style type="text/css">
	.st0{fill:#ED1D24;}
</style>
<path class="st0" d="M288.1,62.3c0.4-0.2,0.6-0.3,0.6-0.3S288.5,62.1,288.1,62.3z"/>
<path d="M449.5,141.6c0,0-23-14.6-27.8-17.3c-13-7.2-38.1-8-91.8,23.2c-19.5-37.1-31.8-46-39.6-46.5c-1.5-0.1-7.3-0.2-12.3-4
	c-0.9-0.7-6.8-5.3-7.1-13c0-0.6,0-1.2,0-1.8c-0.1-0.1-0.3-0.2-0.4-0.3c-20.8-2.1-41.9-2.1-63.5,1.1c-9.6,1.9-20.1,3.4-28.2,8.3
	c-1.2,2.8-2.4,5.7-3.7,8.3c0,0-7.5,15.3-26.2,29.6c-6.4,4.8-24.1,16.2-58,12.1c-4.8-5.3-12.5-12.2-23.6-16.1
	C34.1,113.4,3,139.5,1,141.3l0.4,533.1H450L449.5,141.6z"/>
<image style="overflow:visible;" width="964" height="664" xlink:href="WG-11.html"  transform="matrix(9.975155e-02 -0.1534 0.1534 9.975155e-02 291.6698 148.7588)">
</image>
<image style="overflow:visible;" width="796" height="886" xlink:href="WG-12.html"  transform="matrix(0.24 0 0 0.24 104.9434 15.68)">
</image>
<image style="overflow:visible;" width="667" height="831" xlink:href="WG-14.html"  transform="matrix(0.1344 -0.1303 0.1303 0.1344 -38.2291 128.8354)">
</image>
<image style="overflow:visible;" width="961" height="656" xlink:href="RM-15.html"  transform="matrix(0.1614 -8.129253e-02 8.071971e-02 0.1603 205.1596 140.1221)">
</image>
</svg>
